<svg width="20" height="20" viewBox="0 0 20 20" fill="none" xmlns="http://www.w3.org/2000/svg">
<path d="M9.9827 15.9486L10.0231 15.97V15.9788L10.0635 15.9574C10.2038 16.0333 14.6327 18.4238 15.4365 18.3308C16.2532 18.2363 16.9001 16.071 17.0039 15.2561L17.3887 12.2374C17.5987 10.5898 17.5987 8.92227 17.3887 7.2747L17.0039 4.25594C16.9056 3.48439 15.4366 2.94986 14.3653 2.56006L14.3642 2.55964C14.3045 2.53792 14.246 2.51666 14.1891 2.49583L11.3376 1.78801C10.7714 1.68506 10.4478 1.67453 10.0231 1.66675C10.0103 1.66711 9.99756 1.66746 9.98496 1.66781C9.56048 1.67961 9.25848 1.68801 8.70859 1.78793L5.85709 2.49531C5.80015 2.51614 5.74167 2.53741 5.68194 2.55913L5.68092 2.5595C4.60966 2.94906 3.14065 3.48326 3.0423 4.25433L2.65751 7.27121C2.4475 8.91777 2.4475 10.5843 2.65751 12.2308L3.0423 15.2477C3.14617 16.062 3.79303 18.226 4.60974 18.3204C5.41352 18.4134 9.84244 16.0243 9.9827 15.9486Z" fill="#5B5B5B"/>
</svg>
