<svg width="16" height="18" viewBox="0 0 16 18" fill="none" xmlns="http://www.w3.org/2000/svg">
<path d="M7.9827 14.9486L8.02311 14.97V14.9788L8.06353 14.9574C8.20379 15.0333 12.6327 17.4238 13.4365 17.3308C14.2532 17.2363 14.9001 15.071 15.0039 14.2561L15.3887 11.2374C15.5987 9.5898 15.5987 7.92227 15.3887 6.2747L15.0039 3.25594C14.9056 2.48439 13.4366 1.94986 12.3653 1.56006L12.3642 1.55964C12.3045 1.53792 12.246 1.51666 12.1891 1.49583L9.33764 0.788008C8.77142 0.685058 8.44781 0.674529 8.02311 0.666748C8.01028 0.667107 7.99756 0.667461 7.98496 0.667811C7.56048 0.679613 7.25848 0.68801 6.70859 0.787928L3.85709 1.49531C3.80015 1.51614 3.74167 1.53741 3.68194 1.55913L3.68092 1.5595C2.60966 1.94906 1.14065 2.48326 1.0423 3.25433L0.657512 6.27121C0.447496 7.91777 0.447496 9.58427 0.657512 11.2308L1.0423 14.2477C1.14617 15.062 1.79303 17.226 2.60974 17.3204C3.41352 17.4134 7.84244 15.0243 7.9827 14.9486Z" fill="#ABABAB"/>
</svg>
