<svg width="20" height="20" viewBox="0 0 20 20" fill="none" xmlns="http://www.w3.org/2000/svg">
<path fill-rule="evenodd" clip-rule="evenodd" d="M5.52296 1.88064C5.52296 1.53235 5.80531 1.25 6.1536 1.25C6.50189 1.25 6.78424 1.53235 6.78424 1.88064V4.44283C6.8966 4.61633 7.09187 4.73113 7.31396 4.73113C7.66225 4.73113 7.9446 4.44878 7.9446 4.10049V2.57629C9.42393 2.50714 10.9062 2.52095 12.3843 2.61773V1.88064C12.3843 1.53235 12.6667 1.25 13.015 1.25C13.3633 1.25 13.6456 1.53235 13.6456 1.88064V4.44283C13.758 4.61633 13.9532 4.73113 14.1753 4.73113C14.5236 4.73113 14.806 4.44878 14.806 4.10049V2.86446C16.2222 3.16807 17.3119 4.33541 17.4978 5.79577C17.9024 8.97256 17.9024 12.1878 17.4978 15.3646C17.2978 16.9357 16.0517 18.1677 14.4785 18.3498L14.354 18.3643C11.3249 18.715 8.26542 18.715 5.23628 18.3643L5.11188 18.3498C3.5386 18.1677 2.29255 16.9357 2.09248 15.3646C1.68792 12.1878 1.68792 8.97256 2.09248 5.79578C2.29255 4.22468 3.5386 2.99273 5.11188 2.81054L5.23628 2.79614C5.33181 2.78508 5.42737 2.77436 5.52296 2.764V1.88064ZM9.97109 9.37263C10.5051 9.37263 10.9381 8.9397 10.9381 8.40565C10.9381 7.8716 10.5051 7.43867 9.97109 7.43867C9.43704 7.43867 9.00411 7.8716 9.00411 8.40565C9.00411 8.9397 9.43704 9.37263 9.97109 9.37263ZM13.4522 9.37263C13.9863 9.37263 14.4192 8.9397 14.4192 8.40565C14.4192 7.8716 13.9863 7.43867 13.4522 7.43867C12.9182 7.43867 12.4852 7.8716 12.4852 8.40565C12.4852 8.9397 12.9182 9.37263 13.4522 9.37263ZM14.4192 11.5C14.4192 12.034 13.9863 12.467 13.4522 12.467C12.9182 12.467 12.4852 12.034 12.4852 11.5C12.4852 10.9659 12.9182 10.533 13.4522 10.533C13.9863 10.533 14.4192 10.9659 14.4192 11.5ZM9.97109 12.467C10.5051 12.467 10.9381 12.034 10.9381 11.5C10.9381 10.9659 10.5051 10.533 9.97109 10.533C9.43704 10.533 9.00411 10.9659 9.00411 11.5C9.00411 12.034 9.43704 12.467 9.97109 12.467ZM10.9381 14.5943C10.9381 15.1284 10.5051 15.5613 9.97109 15.5613C9.43704 15.5613 9.00411 15.1284 9.00411 14.5943C9.00411 14.0603 9.43704 13.6273 9.97109 13.6273C10.5051 13.6273 10.9381 14.0603 10.9381 14.5943ZM6.48996 15.5613C7.02401 15.5613 7.45694 15.1284 7.45694 14.5943C7.45694 14.0603 7.02401 13.6273 6.48996 13.6273C5.95591 13.6273 5.52298 14.0603 5.52298 14.5943C5.52298 15.1284 5.95591 15.5613 6.48996 15.5613Z" fill="#D8481A"/>
</svg>
