<svg width="18" height="18" viewBox="0 0 18 18" fill="none" xmlns="http://www.w3.org/2000/svg">
<path d="M11.7336 3.48595C12.4681 2.73185 12.4522 1.52511 11.6981 0.790622C10.944 0.0561388 9.73724 0.0720469 9.00276 0.826154C7.72635 2.13667 6.24561 4.39889 5.16214 6.58217C4.30522 8.30893 3.89432 10.3202 3.99737 11.9348C4.0993 13.5317 4.42684 15.1051 5.69239 16.1839C6.83908 17.1614 8.41823 17.3999 9.8544 17.5619C11.2545 17.7198 12.5077 17.1491 13.4487 16.4772C14.4111 15.7901 15.252 14.8568 15.9148 13.8976C16.5794 12.9357 17.1254 11.8601 17.4438 10.8263C17.7316 9.89175 17.9597 8.58628 17.4453 7.43528C17.0101 6.46159 16.3576 5.64052 15.3713 5.15883C14.4396 4.70383 13.4575 4.67727 12.6217 4.74748C11.9457 4.80427 11.2002 4.9427 10.4528 5.0923C10.9127 4.43045 11.3558 3.87383 11.7336 3.48595Z" fill="#5B5B5B"/>
<path d="M3.33987 6.97953C3.62942 6.62704 3.57839 6.10657 3.2259 5.81702C2.87341 5.52748 2.35294 5.57851 2.06339 5.931C1.21443 6.96452 1.11623 8.37632 0.863685 9.67562C0.613763 10.9614 0.590721 12.2949 0.86716 13.1986C1.29979 14.613 1.79228 15.9459 2.1753 16.5075C2.22086 16.5743 2.25912 16.6304 2.28809 16.6742C2.53977 17.0546 3.05221 17.159 3.43266 16.9073C3.81311 16.6557 3.9175 16.1432 3.66582 15.7628C3.62781 15.7053 3.58246 15.6384 3.53135 15.5629C3.31401 15.2419 3.14765 14.8324 2.98437 14.3402C2.67703 13.4136 2.5262 12.7046 2.53878 11.7285C2.5496 10.888 2.6248 9.78674 2.74752 8.95523C2.85468 8.22923 2.98657 7.53706 3.33987 6.97953Z" fill="#5B5B5B"/>
</svg>
