<svg width="17" height="16" viewBox="0 0 17 16" fill="none" xmlns="http://www.w3.org/2000/svg">
<path d="M11.8177 5.21398C12.4159 4.84493 12.8146 4.18357 12.8146 3.42909C12.8146 2.27166 11.8763 1.33337 10.7188 1.33337C9.5614 1.33337 8.62312 2.27166 8.62312 3.42909C8.62312 4.0547 8.89724 4.61629 9.33194 5.00029C8.74793 5.2416 8.23758 5.63355 7.85348 6.13695L6.7605 7.56941C6.59633 7.78457 6.4571 8.01765 6.34548 8.26418L4.84456 11.5791C4.8163 11.6415 4.77054 11.6945 4.71284 11.7314L2.96848 12.8493C2.8305 12.9377 2.72274 13.0661 2.65959 13.2173L2.56274 13.4492C2.36378 13.9257 2.65777 14.4637 3.16618 14.5536L3.75952 14.6585C4.43947 14.7787 5.13967 14.6997 5.77571 14.4309L6.85837 13.9734C7.36415 13.7597 7.81397 13.4324 8.17302 13.017L9.52938 11.4476C9.5798 11.3893 9.62159 11.324 9.65347 11.2538L10.8924 8.5252C10.9327 8.43644 11.042 8.40348 11.1246 8.45513L11.5546 8.72382C12.2407 9.15253 13.0518 9.33613 13.8557 9.24467L13.9948 9.22884C14.3082 9.19318 14.5721 8.97793 14.6699 8.67801L14.7512 8.42896C14.8785 8.03885 14.6924 7.61536 14.3189 7.44532L13.3544 7.00619C13.2944 6.97886 13.2431 6.93531 13.2065 6.88045L12.7518 6.19993C12.5832 5.94763 12.3832 5.71779 12.1566 5.51595L11.8177 5.21398Z" fill="white"/>
<path d="M5.18937 5.87947C5.6196 5.47454 6.34781 5.22854 6.89061 5.10247C7.06224 5.06261 7.17713 5.22354 7.07601 5.36784C6.88929 5.63431 6.62394 5.96729 6.43068 6.18576C5.92982 6.75195 5.67028 7.26208 5.46069 7.67402C5.42569 7.7428 5.39209 7.80886 5.35898 7.87197C5.27579 8.03059 5.08257 8.04536 4.98798 7.89325C4.8681 7.70047 4.73472 7.45147 4.65738 7.26586C4.49617 6.87896 4.59021 6.44338 5.18937 5.87947Z" fill="white"/>
<path d="M11.0098 11.0268C10.6223 11.6729 9.90686 12.8174 9.60649 13.1178C9.38035 13.3439 9.23087 13.5674 9.14693 13.7215C9.10034 13.807 9.13941 13.9088 9.22601 13.9534L10.1707 14.4397C10.7457 14.703 12.1987 15.0781 12.7017 14.6009C13.0432 14.2769 13.1761 13.9246 13.2296 13.636C13.2729 13.4028 13.2242 13.1638 13.1147 12.9535C12.9089 12.5584 12.5401 11.9766 12.0891 11.6024C11.6662 11.2515 11.3862 11.058 11.2281 10.964C11.1498 10.9175 11.0567 10.9487 11.0098 11.0268Z" fill="white"/>
</svg>
