<svg width="20" height="20" viewBox="0 0 20 20" fill="none" xmlns="http://www.w3.org/2000/svg">
<path fill-rule="evenodd" clip-rule="evenodd" d="M2.67879 8.56903C3.01484 8.56903 3.28726 8.8436 3.28726 9.18225V10.8174C3.28726 14.5426 6.28391 17.5625 9.98047 17.5625C13.6771 17.5625 16.6737 14.5426 16.6737 10.8174V9.18225C16.6737 8.8436 16.9461 8.56903 17.2822 8.56903C17.6182 8.56903 17.8906 8.8436 17.8906 9.18225V10.8174C17.8906 15.2199 14.3492 18.7889 9.98047 18.7889C5.61181 18.7889 2.07031 15.2199 2.07031 10.8174V9.18225C2.07031 8.8436 2.34274 8.56903 2.67879 8.56903Z" fill="#D8481A"/>
<path fill-rule="evenodd" clip-rule="evenodd" d="M9.98039 1.21094C6.95593 1.21094 4.50413 3.68175 4.50413 6.72965V10.8176C4.50413 13.8655 6.95593 16.3363 9.98039 16.3363C13.0049 16.3363 15.4567 13.8655 15.4567 10.8176V6.72965C15.4567 3.68175 13.0049 1.21094 9.98039 1.21094ZM7.93976 5.94884C7.69558 5.71619 7.68478 5.32809 7.91565 5.082L8.35775 5.50327C7.91565 5.082 7.91632 5.0813 7.91632 5.0813L7.91699 5.08058L7.92125 5.0761L7.92754 5.06965C7.93196 5.06518 7.93684 5.06035 7.9422 5.0552C7.95291 5.04489 7.96551 5.0333 7.98011 5.02065C8.00935 4.99533 8.04646 4.96591 8.09236 4.9341C8.18442 4.87033 8.31021 4.79811 8.47632 4.73041C8.80934 4.5947 9.29388 4.48129 9.98039 4.48129C10.6669 4.48129 11.1514 4.5947 11.4845 4.73041C11.6506 4.79811 11.7763 4.87033 11.8685 4.9341C11.9143 4.96591 11.9514 4.99533 11.9807 5.02065C11.9953 5.0333 12.0079 5.04489 12.0186 5.0552C12.0239 5.06035 12.0289 5.06518 12.0333 5.06965L12.0395 5.0761L12.0424 5.07913L12.0438 5.08058L12.0445 5.0813C12.0445 5.0813 12.0451 5.082 11.6118 5.49483L12.0451 5.082C12.276 5.32809 12.2652 5.71619 12.021 5.94884C11.7853 6.17345 11.4182 6.17108 11.1854 5.94923L11.179 5.94469C11.1604 5.93183 11.1129 5.90185 11.0282 5.86734C10.8596 5.79865 10.533 5.70767 9.98039 5.70767C9.42782 5.70767 9.10113 5.79865 8.93256 5.86734C8.84792 5.90185 8.80037 5.93183 8.78183 5.94469L8.77541 5.94923C8.54259 6.17108 8.17551 6.17345 7.93976 5.94884ZM7.93976 8.40162C7.69558 8.16895 7.68478 7.78085 7.91565 7.53477L8.35775 7.95604C7.91565 7.53477 7.91632 7.53406 7.91632 7.53406L7.91699 7.53334L7.91837 7.53188L7.92125 7.52887L7.92754 7.52242C7.93196 7.51794 7.93684 7.51311 7.9422 7.50796C7.95291 7.49765 7.96551 7.48606 7.98011 7.47341C8.00935 7.4481 8.04646 7.41866 8.09236 7.38686C8.18442 7.32309 8.31021 7.25087 8.47632 7.18317C8.80934 7.04747 9.29388 6.93405 9.98039 6.93405C10.6669 6.93405 11.1514 7.04747 11.4845 7.18317C11.6506 7.25087 11.7763 7.32309 11.8685 7.38686C11.9143 7.41866 11.9514 7.4481 11.9807 7.47341C11.9953 7.48606 12.0079 7.49765 12.0186 7.50796C12.0239 7.51311 12.0289 7.51794 12.0333 7.52242L12.0395 7.52887L12.0438 7.53334L12.0445 7.53406C12.0445 7.53406 12.0451 7.53476 11.6118 7.9476L12.0451 7.53477C12.276 7.78085 12.2652 8.16895 12.021 8.40162C11.7853 8.62618 11.4182 8.62381 11.1854 8.40197L11.179 8.39749C11.1604 8.38457 11.1129 8.3546 11.0282 8.32006C10.8596 8.25142 10.533 8.16043 9.98039 8.16043C9.42782 8.16043 9.10113 8.25142 8.93256 8.32006C8.84792 8.3546 8.80037 8.38457 8.78183 8.39749L8.77541 8.40197C8.54259 8.62381 8.17551 8.62618 7.93976 8.40162Z" fill="#D8481A"/>
</svg>
