<svg width="18" height="14" viewBox="0 0 18 14" fill="none" xmlns="http://www.w3.org/2000/svg">
<path fill-rule="evenodd" clip-rule="evenodd" d="M17.7499 6.87706H17.75L17.75 6.85851L17.75 6.83966H17.7499C17.7229 3.24283 13.8158 0.333252 9 0.333252C4.18419 0.333252 0.27705 3.24283 0.250137 6.83966H0.25L0.250036 6.85828L0.25 6.87706H0.250137C0.27705 10.4739 4.18419 13.3835 9 13.3835C13.8158 13.3835 17.7229 10.4739 17.7499 6.87706ZM13.0385 5.5683C13.0385 7.79868 11.2304 9.60676 9 9.60676C6.76962 9.60676 4.96154 7.79868 4.96154 5.5683C4.96154 3.33791 6.76962 1.52983 9 1.52983C11.2304 1.52983 13.0385 3.33791 13.0385 5.5683ZM9 7.28838C9.94998 7.28838 10.7201 6.51827 10.7201 5.5683C10.7201 4.61832 9.94998 3.84821 9 3.84821C8.05002 3.84821 7.27991 4.61832 7.27991 5.5683C7.27991 6.51827 8.05002 7.28838 9 7.28838Z" fill="#ABABAB"/>
</svg>
