<svg width="20" height="20" viewBox="0 0 20 20" fill="none" xmlns="http://www.w3.org/2000/svg">
<path fill-rule="evenodd" clip-rule="evenodd" d="M18.7499 9.87706H18.75L18.75 9.85851L18.75 9.83966H18.7499C18.7229 6.24283 14.8158 3.33325 10 3.33325C5.18419 3.33325 1.27705 6.24283 1.25014 9.83966H1.25L1.25004 9.85828L1.25 9.87706H1.25014C1.27705 13.4739 5.18419 16.3835 10 16.3835C14.8158 16.3835 18.7229 13.4739 18.7499 9.87706ZM14.0385 8.5683C14.0385 10.7987 12.2304 12.6068 10 12.6068C7.76962 12.6068 5.96154 10.7987 5.96154 8.5683C5.96154 6.33791 7.76962 4.52983 10 4.52983C12.2304 4.52983 14.0385 6.33791 14.0385 8.5683ZM10 10.2884C10.95 10.2884 11.7201 9.51827 11.7201 8.5683C11.7201 7.61832 10.95 6.84821 10 6.84821C9.05002 6.84821 8.27991 7.61832 8.27991 8.5683C8.27991 9.51827 9.05002 10.2884 10 10.2884Z" fill="#5B5B5B"/>
</svg>
